# AST/ASF file generated using VICON BodyLanguage
# -----------------------------------------------
:version 1.10
:name VICON
:units
  mass 1.0
  length 0.45
  angle deg
:documentation
   .ast/.asf automatically generated from VICON data using
   VICON BodyBuilder and BodyLanguage model FoxedUp or BRILLIANT.MOD
:root
   order TX TY TZ RX RY RZ
   axis XYZ
   position 0 0 0  
   orientation 0 -0 0 
:bonedata
  begin
     id 1 
     name lhipjoint
     direction 0.432694 -0.693742 0.575759 
     length 2.19277 
     axis 0 -0 0  XYZ
  end
  begin
     id 2 
     name lfemur
     direction 0.34202 -0.939693 0  
     length 6.69022  
     axis 0 -0 20  XYZ
    dof rx ry rz
    limits (-160.0 20.0)
           (-70.0 70.0)
           (-60.0 70.0)
  end
  begin
     id 3 
     name ltibia
     direction 0.34202 -0.939693 0   
     length 6.50337   
     axis 0 -0 20   XYZ
    dof rx
    limits (-10.0 170.0)
  end
  begin
     id 4 
     name lfoot
     direction 0.158999 -0.435969 0.885805   
     length 2.70564   
     axis -90 -1.13533e-015 20   XYZ
    dof rx rz
    limits (-45.0 90.0)
           (-70.0 20.0)
  end
  begin
     id 5 
     name ltoes
     direction -0.00592919 0.00964381 0.999936   
     length 1.29929   
     axis -90 -1.13533e-015 20   XYZ
    dof rx
    limits (-90.0 20.0)
  end
  begin
     id 6 
     name rhipjoint
     direction -0.414359 -0.700339 0.581234   
     length 2.17212  
     axis 0 -0 0  XYZ 
  end
  begin
     id 7 
     name rfemur
     direction -0.34202 -0.939693 0   
     length 7.17659   
     axis 0 -0 -20   XYZ
    dof rx ry rz
    limits (-160.0 20.0)
           (-70.0 70.0)
           (-70.0 60.0)
  end
  begin
     id 8 
     name rtibia
     direction -0.34202 -0.939693 0   
     length 6.36669   
     axis 0 -0 -20   XYZ
    dof rx
    limits (-10.0 170.0)
 end
 begin
     id 9 
     name rfoot
     direction -0.137064 -0.37658 0.916188   
     length 2.22351  
     axis -90 1.13533e-015 -20   XYZ
    dof rx rz
    limits (-45.0 90.0)
           (-20.0 70.0)
  end
  begin
     id 10 
     name rtoes
     direction -0.000784077 -0.00289101 0.999996   
     length 1.09522   
     axis -90 1.13533e-015 -20   XYZ
    dof rx
    limits (-90.0 20.0)
  end
  begin
     id 11 
     name lowerback
     direction -0.0176242 0.984912 -0.172157   
     length 1.65301   
     axis 0 -0 0   XYZ
    dof rx ry rz
    limits (-20.0 45.0)
           (-30.0 30.0)
           (-30.0 30.0)
  end
  begin
     id 12 
     name upperback
     direction -0.00218128 0.998776 -0.0494072   
     length 1.67776   
     axis 0 -0 0   XYZ
    dof rx ry rz
    limits (-20.0 45.0)
           (-30.0 30.0)
           (-30.0 30.0)
  end
  begin
     id 13 
     name thorax
     direction 0.00544186 0.999658 0.0255711   
     length 1.72293   
     axis 0 -0 0   XYZ
    dof rx ry rz
    limits (-20.0 45.0)
           (-30.0 30.0)
           (-30.0 30.0)
  end
  begin
     id 14 
     name lowerneck
     direction -0.105325 0.983841 0.144785   
     length 2.14226   
     axis 0 -0 0   XYZ
    dof rx ry rz
    limits (-20.0 45.0)
           (-30.0 30.0)
           (-30.0 30.0)
  end
  begin
     id 15 
     name upperneck
     direction 0.0547957 0.988053 -0.144041   
     length 2.17508   
     axis 0 -0 0   XYZ
    dof rx ry rz
    limits (-20.0 45.0)
           (-30.0 30.0)
           (-30.0 30.0)
  end
  begin
     id 16
     name head
     direction 0.0247488 0.997534 -0.0656813  
     length 2.20048  
     axis 0 -0 0   XYZ
    dof rx ry rz
    limits (-20.0 45.0)
           (-30.0 30.0)
           (-30.0 30.0)
  end
  begin
     id 17 
     name lclavicle
     direction 0.820559 0.567247 -0.0701026  
     length 4.09615  
     axis 0 -0 0   XYZ
    dof ry rz
    limits (-20.0 10.0)
           (0.0 20.0)
  end
  begin
     id 18 
     name lhumerus
     direction 0.999977 -0.0067566 -9.96392e-005   
     length 4.59333   
     axis -180 -30 -90   XYZ
    dof rx ry rz
    limits (-60.0 90.0)
           (-90.0 90.0)
           (-90.0 90.0)
  end
  begin
     id 19
     name lradius
     direction 1 -4.48982e-011 -2.53425e-027   
     length 2.81151   
     axis -180 -30 -90   XYZ
    dof rx
    limits (-10.0 170.0)
  end
  begin
     id 20
     name lwrist
     direction 1 -4.48939e-011 -7.39254e-028   
     length 1.40576   
     axis 2.56395e-016 90 90   XYZ
    dof ry
    limits (-180.0 0.0)
 end
  begin
     id 21 
     name lhand
     direction 1 -4.48939e-011 -1.47851e-027   
     length 0.895651   
     axis 9.43423e-016 90 90   XYZ
    dof rx rz
    limits (-90.0 90.0)
           (-45.0 45.0)
  end
  begin
     id 22 
     name lfingers
     direction 1 -4.48978e-011 -2.95702e-027   
     length 0.722097   
     axis 1.88685e-015 90 90   XYZ
    dof rx
    limits (0.0 90.0)
  end
  begin
     id 23
     name lthumb
     direction 0.707107 -6.34931e-011 0.707107   
     length 1.03679   
     axis -90 45 -9.86935e-015   XYZ
    dof rx rz
    limits (-45.0 45.0)
           (-45.0 45.0)
  end
  begin
     id 24 
     name rclavicle
     direction -0.831414 0.553102 -0.0531864   
     length 4.24872  
     axis 0 -0 0   XYZ 
    dof ry rz
    limits (-10.0 20.0)
           (-20.0 0.0)
  end
  begin
     id 25 
     name rhumerus
     direction -0.999916 -0.000939607 0.0129331  
     length 4.74834   
     axis -180 30 90   XYZ
    dof rx ry rz
    limits (-90.0 60.0)
           (-90.0 90.0)
           (-90.0 90.0)
  end
  begin
     id 26 
     name rradius
     direction -1 -4.48956e-011 -1.31752e-027   
     length 2.79907   
     axis -180 30 90   XYZ
    dof rx
    limits (-10.0 170.0)
  end
  begin
     id 27 
     name rwrist
     direction -1 -4.4897e-011 -7.39254e-028   
     length 1.39954   
     axis 2.56395e-016 -90 -90   XYZ
    dof ry
    limits (-180.0 0.0)
  end
  begin
     id 28
     name rhand
     direction -0.999997 -0.00250697 0.000800838   
     length 0.953304   
     axis 9.43423e-016 -90 -90   XYZ
    dof rx rz
    limits (-90.0 90.0)
           (-45.0 45.0)
  end
  begin
     id 29
     name rfingers
     direction -1 -4.48954e-011 -2.95702e-027   
     length 0.763342   
     axis 1.88685e-015 -90 -90   XYZ
    dof rx
    limits (0.0 90.0)
  end
  begin
     id 30
     name rthumb
     direction -0.709701 -0.00217037 0.7045   
     length 1.10115   
     axis -90 -45 9.86935e-015   XYZ
    dof rx rz
    limits (-45.0 45.0)
           (-45.0 45.0)
  end
:hierarchy
  begin
    root lhipjoint rhipjoint lowerback
    lhipjoint lfemur
    lfemur ltibia
    ltibia lfoot
    lfoot ltoes
    rhipjoint rfemur
    rfemur rtibia
    rtibia rfoot
    rfoot rtoes
    lowerback upperback
    upperback thorax
    thorax lowerneck lclavicle rclavicle
    lowerneck upperneck
    upperneck head
    lclavicle lhumerus
    lhumerus lradius
    lradius lwrist
    lwrist lhand lthumb
    lhand lfingers
    rclavicle rhumerus
    rhumerus rradius
    rradius rwrist
    rwrist rhand rthumb
    rhand rfingers
  end

#!OML:ASF G:\ViconDB\ViconDB\414\test\team2\shane.ASF
:FULLY-SPECIFIED
:DEGREES
33
root 3.36519 15.4815 -38.0224 7.82375 -8.94914 -9.59967
lowerback 13.2092 -1.66382 0.533514
upperback 4.98883 -2.07973 2.2794
thorax -2.09272 -1.0598 2.38052
lowerneck -19.7248 -1.71315 -9.24639
upperneck 24.3365 -1.36591 6.8753
head 11.2807 -0.624656 3.8838
rclavicle 2.54444e-014 7.95139e-016
rhumerus -35.6623 20.2017 -89.6424
rradius 46.0797
rwrist 23.1615
rhand -30.9634 -16.403
rfingers 7.12502
rthumb -4.24778 -46.3404
lclavicle 2.54444e-014 7.95139e-016
lhumerus -26.7565 -32.4739 95.1142
lradius 23.6917
lwrist -18.3202
lhand -38.7815 7.71305
lfingers 7.12502
lthumb -11.793 37.361
rfemur -24.4563 -13.5915 24.8371
rtibia 54.5519
rfoot -33.734 -0.101097
rtoes -14.477
lfemur 9.6749 -0.275423 -0.654481
ltibia 24.5514
lfoot -29.7845 -17.7709
ltoes -26.2289
34
root 3.36027 15.4731 -38.0031 8.44069 -8.53729 -9.62525
lowerback 13.3129 -1.67399 0.488093
upperback 5.18301 -2.10202 2.22185
thorax -1.94509 -1.07245 2.34866
lowerneck -19.7145 -1.8954 -9.39281
upperneck 23.8974 -1.54572 6.82688
head 11.1333 -0.717526 3.8498
rclavicle -1.55052e-014 4.13472e-014
rhumerus -35.711 20.0679 -89.0636
rradius 46.0904
rwrist 23.0073
rhand -31.1133 -16.6132
rfingers 7.12502
rthumb -4.39259 -46.5476
lclavicle -1.55052e-014 4.13472e-014
lhumerus -25.3392 -32.618 93.7413
lradius 23.6806
lwrist -19.5903
lhand -38.9868 7.42509
lfingers 7.12502
lthumb -11.9909 37.0616
rfemur -25.7195 -14.3097 24.9827
rtibia 55.8831
rfoot -32.9762 -2.07036
rtoes -14.1637
lfemur 9.57851 -0.10472 -0.51785
ltibia 23.5361
lfoot -30.0834 -17.8327
ltoes -25.3462
35
root 3.35001 15.4676 -37.9832 8.92193 -7.91478 -9.6938
lowerback 13.4045 -1.69911 0.533901
upperback 5.48177 -2.13234 2.26946
thorax -1.68001 -1.09053 2.37364
lowerneck -19.5997 -2.20247 -9.93484
upperneck 23.3827 -1.8325 6.96512
head 10.9559 -0.871676 3.9342
rclavicle 1.59028e-014 7.15625e-015
rhumerus -35.7025 19.8159 -88.2153
rradius 46.0582
rwrist 23.5168
rhand -31.3676 -17.1458
rfingers 7.12502
rthumb -4.63812 -47.075
lclavicle 1.59028e-014 7.15625e-015
lhumerus -23.8295 -33.3463 92.6952
lradius 23.7081
lwrist -19.5427
lhand -39.6515 7.46453
lfingers 7.12502
lthumb -12.6318 37.0626
rfemur -26.7098 -15.0174 25.1161
rtibia 57.1172
rfoot -32.3082 -4.3708
rtoes -13.4985
lfemur 9.5003 0.0606149 -0.254654
ltibia 22.5668
lfoot -30.4455 -17.8601
ltoes -25.0988
36
root 3.3357 15.4653 -37.9631 9.4475 -7.08162 -9.72011
lowerback 13.8175 -1.78494 0.574422
upperback 5.56464 -2.2282 2.37353
thorax -1.80797 -1.13791 2.48757
lowerneck -19.2543 -2.40371 -10.2515
upperneck 22.8661 -1.96675 6.72361
head 10.7162 -0.985259 3.86141
rclavicle -1.47101e-014 2.78299e-014
rhumerus -36.0061 19.759 -87.4792
rradius 46.4589
rwrist 21.9663
rhand -31.467 -16.7866
rfingers 7.12502
rthumb -4.73408 -46.7137
lclavicle -1.47101e-014 2.78299e-014
lhumerus -22.2187 -32.4799 91.3532
lradius 23.5284
lwrist -21.1031
lhand -40.0608 7.13924
lfingers 7.12502
lthumb -13.0264 36.7125
rfemur -27.6023 -15.5895 25.1781
rtibia 58.1746
rfoot -31.7134 -6.94036
rtoes -12.3973
lfemur 9.23888 -0.414594 -0.171193
ltibia 21.6717
lfoot -30.7043 -17.3382
ltoes -24.7319
37
root 3.32055 15.4695 -37.9298 9.9084 -6.21064 -9.89598
lowerback 14.0988 -1.82074 0.886343
upperback 5.79161 -2.22889 2.49387
thorax -1.7267 -1.13677 2.44351
lowerneck -18.9287 -2.65685 -10.6487
upperneck 22.2036 -2.18022 6.60904
head 10.4399 -1.12199 3.83602
rclavicle 1.35174e-014 2.38542e-015
rhumerus -36.3356 19.8026 -86.6599
rradius 46.9649
rwrist 21.2516
rhand -31.326 -17.4509
rfingers 7.12502
rthumb -4.59797 -47.381
lclavicle 1.35174e-014 2.38542e-015
lhumerus -20.5561 -32.1415 90.075
lradius 23.5732
lwrist -21.7993
lhand -40.6063 7.31322
lfingers 7.12502
lthumb -13.5522 36.8522
rfemur -28.2032 -15.8872 25.2432
rtibia 58.9838
rfoot -31.1813 -9.03818
rtoes -11.6981
lfemur 8.97862 -0.671258 0.168188
ltibia 20.9497
lfoot -30.825 -17.2797
ltoes -24.5024
38
root 3.29561 15.4785 -37.9006 10.3461 -5.43483 -9.86779
lowerback 14.4709 -1.80942 0.928947
upperback 6.01175 -2.19961 2.58945
thorax -1.69223 -1.12342 2.52464
lowerneck -18.5716 -2.93236 -11.2381
upperneck 21.576 -2.3971 6.57334
head 10.1785 -1.26688 3.87402
rclavicle 2.54444e-014 3.73715e-014
rhumerus -36.5119 19.7901 -85.8812
rradius 47.2493
rwrist 21.0049
rhand -31.437 -18.2001
rfingers 7.12502
rthumb -4.70515 -48.1278
lclavicle 2.54444e-014 3.73715e-014
lhumerus -18.6536 -31.283 88.8431
lradius 23.2422
lwrist -22.257
lhand -41.1968 7.14403
lfingers 7.12502
lthumb -14.1212 36.6442
rfemur -28.6808 -15.9372 24.9524
rtibia 59.521
rfoot -30.7545 -9.78221
rtoes -9.97568
lfemur 8.65904 -0.982411 0.278907
ltibia 20.3445
lfoot -30.68 -17.0458
ltoes -24.2853
39
root 3.27625 15.4834 -37.8578 10.677 -4.57091 -9.84072
lowerback 14.7549 -1.8286 1.33042
upperback 6.29465 -2.16978 2.53882
thorax -1.56332 -1.10251 2.24513
lowerneck -18.0079 -3.1755 -11.585
upperneck 20.7591 -2.66132 6.51376
head 9.81554 -1.41398 3.85369
rclavicle -1.31198e-014 -7.15625e-015
rhumerus -36.6782 19.8268 -85.1556
rradius 47.5307
rwrist 20.5522
rhand -31.4793 -18.725
rfingers 7.12502
rthumb -4.74596 -48.6518
lclavicle -1.31198e-014 -7.15625e-015
lhumerus -16.8899 -30.9007 87.497
lradius 23.2362
lwrist -22.6258
lhand -41.8035 7.23826
lfingers 7.12502
lthumb -14.7058 36.6967
rfemur -28.8107 -15.8215 24.5483
rtibia 59.7499
rfoot -30.4298 -9.84162
rtoes -9.71991
lfemur 8.41591 -1.29419 0.392661
ltibia 19.8413
lfoot -30.7584 -16.6987
ltoes -24.0508
40
root 3.2453 15.492 -37.8176 11.2129 -3.71957 -9.78987
lowerback 14.9158 -1.77046 1.48654
upperback 6.52352 -2.06928 2.61579
thorax -1.41259 -1.05104 2.22309
lowerneck -17.4963 -3.50758 -12.0312
upperneck 20.1466 -2.97705 6.24906
head 9.54522 -1.61782 3.77691
rclavicle 9.93923e-015 2.78299e-014
rhumerus -36.5718 19.777 -84.2543
rradius 47.6955
rwrist 20.0693
rhand -31.2701 -18.7197
rfingers 7.12502
rthumb -4.54395 -48.651
lclavicle 9.93923e-015 2.78299e-014
lhumerus -15.1428 -30.1786 86.2375
lradius 23.289
lwrist -23.1333
lhand -42.338 7.66197
lfingers 7.12502
lthumb -15.2208 37.0821
rfemur -29.0642 -15.4994 24.2056
rtibia 59.6607
rfoot -29.8981 -9.5872
rtoes -10.1369
lfemur 7.93495 -1.55787 0.563141
ltibia 19.4756
lfoot -30.7793 -16.2875
ltoes -24.0426
41
root 3.21224 15.4973 -37.7673 11.7054 -3.16793 -9.68794
lowerback 15.0487 -1.66348 1.69527
upperback 6.78903 -1.90534 2.51224
thorax -1.21783 -0.964062 1.97042
lowerneck -16.9536 -3.78032 -12.5285
upperneck 19.5068 -3.28519 6.31261
head 9.26684 -1.78452 3.82946
rclavicle -3.22031e-014 1.66979e-014
rhumerus -36.3532 20.1192 -83.6205
rradius 47.8976
rwrist 18.9848
rhand -31.2226 -18.7757
rfingers 7.12502
rthumb -4.49811 -48.7079
lclavicle -3.22031e-014 1.66979e-014
lhumerus -13.3925 -28.8872 84.928
lradius 23.2033
lwrist -23.6198
lhand -42.7935 7.92555
lfingers 7.12502
lthumb -15.6595 37.3118
rfemur -29.0851 -15.016 23.7
rtibia 59.2458
rfoot -29.0793 -9.00605
rtoes -11.1637
lfemur 7.48623 -1.53538 0.668633
ltibia 19.2825
lfoot -30.7275 -16.226
ltoes -23.9925
42
root 3.17184 15.5111 -37.7123 12.2101 -2.32417 -9.4789
lowerback 15.0452 -1.6144 1.80271
upperback 7.12797 -1.83487 2.49247
thorax -0.863431 -0.925638 1.87185
lowerneck -16.5206 -4.03968 -12.9079
upperneck 18.9341 -3.52686 6.05767
head 9.02214 -1.94402 3.76158
rclavicle -1.94809e-014 -3.26007e-014
rhumerus -35.836 20.2611 -82.6705
rradius 47.9467
rwrist 18.8382
rhand -31.195 -18.5058
rfingers 7.12502
rthumb -4.47144 -48.4386
lclavicle -1.94809e-014 -3.26007e-014
lhumerus -11.8014 -28.5837 83.7472
lradius 23.7236
lwrist -22.6491
lhand -43.2041 8.5027
lfingers 7.12502
lthumb -16.0549 37.8575
rfemur -28.9166 -14.5877 23.1407
rtibia 58.4769
rfoot -28.5395 -9.08584
rtoes -12.6393
lfemur 6.7962 -1.77074 0.759966
ltibia 19.3526
lfoot -30.6491 -16.1886
ltoes -24.4785
43
root 3.12821 15.5294 -37.6478 12.6997 -1.7263 -9.19864
lowerback 15.3339 -1.54497 1.91288
upperback 7.34521 -1.72669 2.30472
thorax -0.797686 -0.864843 1.60158
lowerneck -16.0936 -4.21286 -12.987
upperneck 18.4661 -3.69174 5.60165
head 8.79816 -2.06768 3.58879
rclavicle 4.01545e-014 3.97569e-015
rhumerus -35.166 20.2692 -81.894
rradius 47.6327
rwrist 19.857
rhand -31.1759 -18.3114
rfingers 7.12502
rthumb -4.45303 -48.2446
lclavicle 4.01545e-014 3.97569e-015
lhumerus -10.2215 -27.1931 82.5213
lradius 23.6053
lwrist -22.9626
lhand -43.9922 8.82156
lfingers 7.12502
lthumb -16.8136 38.1136
rfemur -28.5111 -13.8384 22.4631
rtibia 57.3903
rfoot -28.3928 -8.8654
rtoes -15.1499
lfemur 5.98386 -1.65718 0.772157
ltibia 19.7359
lfoot -30.4056 -16.5204
ltoes -24.4803
44
root 3.07614 15.532 -37.5873 13.3203 -1.05966 -9.07756
lowerback 15.3547 -1.45384 1.99971
upperback 7.61756 -1.60137 2.27494
thorax -0.525263 -0.798129 1.49838
lowerneck -15.6789 -4.4222 -13.347
upperneck 18.0134 -3.87421 5.30876
head 8.59413 -2.20077 3.51923
rclavicle 3.57812e-015 -6.36111e-015
rhumerus -34.2528 20.5946 -80.9302
rradius 47.4812
rwrist 20.3211
rhand -31.1831 -17.9279
rfingers 7.12502
rthumb -4.45993 -47.861
lclavicle 3.57812e-015 -6.36111e-015
lhumerus -8.82473 -26.2963 81.3537
lradius 23.9959
lwrist -21.9584
lhand -44.6665 9.09267
lfingers 7.12502
lthumb -17.4628 38.3283
rfemur -28.0801 -13.2054 22.0458
rtibia 56.0874
rfoot -29.0214 -7.67027
rtoes -16.3035
lfemur 4.98987 -1.91668 0.932904
ltibia 20.4793
lfoot -30.4539 -16.1293
ltoes -24.8331
45
root 3.02322 15.5439 -37.5176 13.8907 -0.373061 -8.88591
lowerback 15.4595 -1.40918 2.08467
upperback 7.92523 -1.53548 2.19775
thorax -0.259313 -0.759368 1.35811
lowerneck -15.5002 -4.63333 -13.5793
upperneck 17.7446 -4.03075 4.85867
head 8.48759 -2.32868 3.37926
rclavicle 3.02153e-014 -1.35174e-014
rhumerus -32.9947 21.069 -79.9627
rradius 47.4174
rwrist 20.3628
rhand -31.1035 -18.0807
rfingers 7.12502
rthumb -4.38307 -48.0153
lclavicle 3.02153e-014 -1.35174e-014
lhumerus -7.33655 -24.8148 80.285
lradius 24.0391
lwrist -22.3277
lhand -45.4241 9.79251
lfingers 7.12502
lthumb -18.1917 38.9618
rfemur -27.4098 -12.6538 21.6716
rtibia 54.6259
rfoot -29.7663 -7.04323
rtoes -16.9498
lfemur 3.7117 -1.93857 1.05967
ltibia 21.7424
lfoot -30.5992 -16.1094
ltoes -25.6012
46
root 2.96382 15.552 -37.4476 14.5769 0.422222 -8.61537
lowerback 15.5902 -1.36093 2.07725
upperback 8.12893 -1.47103 2.16212
thorax -0.113182 -0.72443 1.31584
lowerneck -15.1419 -4.85237 -13.8262
upperneck 17.4008 -4.20007 4.28892
head 8.32391 -2.4735 3.20184
rclavicle 1.94809e-014 -1.98785e-014
rhumerus -31.6032 20.9617 -78.6982
rradius 47.0286
rwrist 21.5587
rhand -31.1186 -17.0987
rfingers 7.12502
rthumb -4.39769 -47.033
lclavicle 1.94809e-014 -1.98785e-014
lhumerus -6.16052 -23.1781 79.3283
lradius 24.2843
lwrist -22.7744
lhand -45.928 10.0852
lfingers 7.12502
lthumb -18.6765 39.2086
rfemur -26.8676 -12.4792 21.4933
rtibia 53.1564
rfoot -30.4559 -7.00308
rtoes -17.8323
lfemur 1.95077 -1.68739 1.25159
ltibia 23.5332
lfoot -30.659 -16.4971
ltoes -26.198
